<svg width="64" height="23" viewBox="0 0 64 23" fill="none" xmlns="http://www.w3.org/2000/svg">
<path d="M32.25 20.0987C39.6446 20.0987 46.4188 19.3973 51.4139 18.2249C53.8915 17.6433 56.0704 16.9144 57.6907 16.0152C58.5001 15.566 59.2855 15.0118 59.8941 14.3136C60.517 13.5992 61.0439 12.6226 61.0439 11.427C61.0439 10.2314 60.517 9.2548 59.8941 8.54032C59.2855 7.84219 58.5001 7.28791 57.6907 6.83871C56.0704 5.93956 53.8915 5.21063 51.4139 4.62908C46.4188 3.45664 39.6446 2.75528 32.25 2.75528C24.8555 2.75528 18.0812 3.45664 13.0862 4.62908C10.6086 5.21063 8.42967 5.93956 6.8094 6.83871C5.99994 7.28791 5.21458 7.84219 4.60595 8.54032C3.98307 9.2548 3.45618 10.2314 3.45618 11.427C3.45618 12.6226 3.98307 13.5992 4.60595 14.3136C5.21458 15.0118 5.99994 15.566 6.8094 16.0152C8.42967 16.9144 10.6086 17.6433 13.0862 18.2249C18.0812 19.3973 24.8555 20.0987 32.25 20.0987Z" stroke="#FF3939" stroke-width="5"/>
</svg>
