<svg width="67" height="69" viewBox="0 0 67 69" fill="none" xmlns="http://www.w3.org/2000/svg">
<path d="M31.7291 64.1312L33.2583 65.0305L34.7831 64.124C41.9604 59.8569 49.0413 54.5307 54.3664 48.577C59.6519 42.6678 63.5 35.8063 63.5 28.5267C63.5 13.9196 49.3969 3 33.25 3C17.1031 3 3 13.9196 3 28.5267C3 35.8888 7.42469 43.0801 12.8835 49.0621C18.4274 55.1373 25.4896 60.4616 31.7291 64.1312Z" fill="#FF3939" stroke="white" stroke-width="6"/>
<ellipse cx="33.7281" cy="28.4826" rx="15.2982" ry="12.7842" fill="#F8F8F8"/>
<path d="M37.3878 28.4171C33.6992 33.5638 29.9999 28.6368 29.9999 28.6368" stroke="#4C382F" stroke-width="2"/>
<ellipse cx="25.6009" cy="26.7193" rx="2.39035" ry="2.20418" fill="#4D382F"/>
<ellipse cx="42.3334" cy="26.7193" rx="2.86842" ry="2.20418" fill="#4D382F"/>
</svg>
